<?xml version="1.0" standalone="no"?>
<!DOCTYPE svg PUBLIC "-//W3C//DTD SVG 20010904//EN"
 "http://www.w3.org/TR/2001/REC-SVG-20010904/DTD/svg10.dtd">
<svg version="1.0" xmlns="http://www.w3.org/2000/svg"
 width="500.000000pt" height="500.000000pt" viewBox="0 0 500.000000 500.000000"
 preserveAspectRatio="xMidYMid meet">
<metadata>
Created by potrace 1.14, written by Peter Selinger 2001-2017
</metadata>
<g transform="translate(0.000000,500.000000) scale(0.100000,-0.100000)"
fill="#000000" stroke="none">
<path d="M2397 4734 c-1 -1 -40 -4 -87 -8 -47 -3 -94 -8 -105 -10 -11 -2 -42
-7 -70 -10 -114 -16 -327 -77 -445 -128 -113 -48 -283 -139 -370 -197 -52 -35
-97 -67 -100 -71 -3 -3 -12 -11 -22 -16 -48 -27 -249 -219 -334 -319 -241
-287 -400 -589 -488 -929 -14 -55 -30 -102 -35 -106 -6 -3 -12 -21 -16 -40 -3
-19 -7 -46 -10 -60 -19 -111 -28 -423 -15 -545 22 -204 22 -196 3 -210 -24
-18 -7 -69 24 -73 15 -2 23 -13 27 -36 4 -18 22 -82 42 -142 152 -466 386
-807 770 -1123 86 -71 295 -198 412 -252 160 -73 372 -143 497 -165 22 -4 49
-9 60 -11 143 -30 446 -39 605 -18 229 31 450 93 637 181 52 24 97 44 99 44
21 0 323 199 370 244 6 6 29 25 50 41 120 93 324 323 439 495 111 166 254 497
295 683 13 57 13 57 51 57 37 0 49 12 49 49 0 12 -7 17 -22 17 -26 -1 -27 12
-13 164 11 109 12 393 2 490 -18 177 -22 199 -42 214 -9 7 -24 49 -35 97 -103
459 -362 867 -760 1195 -284 233 -622 399 -935 459 -102 19 -269 35 -388 37
-76 2 -139 2 -140 2z"/>
</g>
</svg>
